<?xml version="1.0" standalone="no"?>
<!DOCTYPE svg PUBLIC "-//W3C//DTD SVG 20010904//EN"
 "http://www.w3.org/TR/2001/REC-SVG-20010904/DTD/svg10.dtd">
<svg version="1.0" xmlns="http://www.w3.org/2000/svg"
 width="231.000000pt" height="231.000000pt" viewBox="0 0 231.000000 231.000000"
 preserveAspectRatio="xMidYMid meet">
<metadata>
Created by potrace 1.13, written by Peter Selinger 2001-2015
</metadata>
<g transform="translate(0.000000,231.000000) scale(0.100000,-0.100000)"
fill="#000000" stroke="none">
<path d="M961 2274 c-171 -31 -340 -104 -476 -204 -41 -30 -75 -58 -75 -61 0
-7 251 -261 283 -287 14 -12 22 -9 59 16 203 139 471 163 692 63 36 -16 85
-43 110 -60 24 -17 48 -31 51 -31 4 0 74 67 156 149 l149 149 -53 40 c-150
115 -283 175 -508 228 -53 13 -316 12 -388 -2z"/>
<path d="M293 1895 c-38 -41 -112 -153 -148 -225 -91 -182 -125 -335 -120
-540 2 -74 6 -146 9 -160 3 -14 8 -38 12 -55 12 -64 66 -213 102 -283 41 -79
141 -222 156 -222 10 0 296 284 296 295 0 3 -14 27 -31 51 -81 118 -121 250
-121 399 0 142 44 287 122 400 38 55 52 32 -131 214 -96 96 -139 133 -146 126z"/>
<path d="M1874 1771 c-187 -186 -171 -162 -136 -213 114 -167 152 -369 107
-566 -17 -74 -72 -196 -109 -245 -14 -19 -26 -37 -26 -40 0 -7 290 -297 297
-297 17 0 111 136 156 225 51 101 65 139 93 245 30 110 42 331 24 431 -6 32
-12 70 -15 85 -22 131 -137 371 -222 464 -13 14 -23 28 -23 32 0 21 -28 -2
-146 -121z"/>
<path d="M1389 1508 c-1 -2 -2 -162 -3 -355 l-1 -353 87 0 c77 0 88 2 89 18 1
24 1 653 0 675 -1 15 -12 17 -86 17 -47 0 -86 -1 -86 -2z"/>
<path d="M1069 1233 c0 -39 0 -361 0 -401 l1 -33 87 3 88 3 0 225 0 225 -88 3
-87 3 -1 -28z"/>
<path d="M748 1001 c-2 -25 -2 -81 0 -124 l4 -78 86 3 87 3 0 122 0 121 -87 0
-87 -1 -3 -46z"/>
<path d="M557 454 c-81 -80 -147 -149 -147 -153 0 -14 155 -119 235 -160 177
-89 326 -121 530 -116 166 5 160 4 210 17 22 6 45 11 50 12 81 16 261 95 339
148 67 46 126 92 126 99 0 7 -229 239 -278 283 -21 18 -22 18 -54 -6 -146
-111 -363 -157 -555 -116 -99 20 -169 49 -245 100 -31 21 -59 38 -61 38 -2 0
-70 -66 -150 -146z"/>
</g>
</svg>
