<?xml version="1.0" standalone="no"?>
<!DOCTYPE svg PUBLIC "-//W3C//DTD SVG 20010904//EN"
 "http://www.w3.org/TR/2001/REC-SVG-20010904/DTD/svg10.dtd">
<svg version="1.0" xmlns="http://www.w3.org/2000/svg"
 width="248.000000pt" height="210.000000pt" viewBox="0 0 248.000000 210.000000"
 preserveAspectRatio="xMidYMid meet">
<metadata>
Created by potrace 1.13, written by Peter Selinger 2001-2015
</metadata>
<g transform="translate(0.000000,210.000000) scale(0.100000,-0.100000)"
fill="#000000" stroke="none">
<path d="M828 2061 c-66 -26 -124 -75 -155 -129 -15 -26 -28 -49 -31 -52 -2
-3 -124 -5 -270 -6 -147 -1 -275 -2 -285 -3 -10 0 -32 -14 -48 -30 -46 -47
-36 -121 21 -154 24 -15 65 -17 308 -17 l279 0 18 -41 c27 -58 104 -123 173
-146 138 -46 296 18 363 148 l19 39 594 2 595 3 30 29 c47 45 39 117 -15 153
-26 17 -67 18 -612 18 l-585 0 -25 40 c-64 105 -143 154 -256 161 -54 3 -82 0
-118 -15z m158 -203 c28 -13 47 -50 46 -87 -2 -95 -115 -133 -176 -60 -44 52
-29 120 34 151 34 18 55 17 96 -4z"/>
<path d="M1561 1349 c-72 -21 -152 -91 -182 -158 -10 -22 -21 -31 -39 -32 -14
0 -305 -1 -648 -2 l-624 -2 -29 -33 c-39 -44 -39 -90 0 -134 l29 -33 519 -2
c285 -2 577 -3 649 -3 130 0 132 0 138 -23 3 -13 25 -45 48 -72 83 -95 214
-129 333 -88 57 21 160 114 171 157 4 16 13 26 25 26 10 1 118 2 240 3 l221 2
29 33 c39 44 39 90 0 134 l-29 33 -219 2 c-120 1 -228 2 -239 2 -15 1 -24 9
-28 27 -12 46 -114 137 -175 157 -58 18 -136 21 -190 6z m162 -230 c46 -50 32
-123 -30 -153 -46 -22 -85 -13 -118 26 -31 37 -33 85 -4 122 42 54 104 56 152
5z"/>
<path d="M574 639 c-93 -17 -173 -74 -215 -153 l-24 -46 -116 0 c-64 0 -129
-5 -146 -10 -58 -21 -81 -104 -43 -153 28 -36 69 -45 190 -43 116 2 115 2 159
-72 14 -23 43 -54 66 -71 153 -110 356 -63 448 104 l23 40 741 0 c737 0 742 0
770 21 57 42 53 132 -6 167 -27 16 -92 17 -768 17 l-738 0 -28 50 c-60 108
-194 171 -313 149z m90 -209 c68 -26 81 -135 20 -175 -56 -37 -126 -18 -150
42 -37 87 42 167 130 133z"/>
</g>
</svg>
