<?xml version="1.0" standalone="no"?>
<!DOCTYPE svg PUBLIC "-//W3C//DTD SVG 20010904//EN"
 "http://www.w3.org/TR/2001/REC-SVG-20010904/DTD/svg10.dtd">
<svg version="1.0" xmlns="http://www.w3.org/2000/svg"
 width="251.000000pt" height="251.000000pt" viewBox="0 0 251.000000 251.000000"
 preserveAspectRatio="xMidYMid meet">
<metadata>
Created by potrace 1.13, written by Peter Selinger 2001-2015
</metadata>
<g transform="translate(0.000000,251.000000) scale(0.100000,-0.100000)"
fill="#000000" stroke="none">
<path d="M1115 2471 c-81 -23 -131 -51 -192 -105 -105 -95 -153 -205 -157
-361 l-2 -100 -95 -6 c-106 -6 -150 -25 -193 -82 -37 -49 -44 -97 -45 -292 -1
-202 9 -251 59 -302 55 -57 90 -66 243 -68 152 -1 191 7 221 48 20 27 20 40
21 450 1 404 2 424 22 467 45 99 130 152 252 156 136 5 235 -51 281 -159 21
-48 22 -63 21 -441 0 -215 0 -410 -1 -433 l0 -41 -41 3 c-32 3 -47 11 -73 41
l-33 38 -123 3 c-181 4 -223 -23 -224 -142 -1 -67 15 -102 60 -132 39 -25 433
-27 506 -2 57 19 93 50 115 99 9 19 18 37 20 39 1 2 41 5 88 7 130 3 207 51
236 145 6 19 10 122 9 233 0 174 -3 204 -20 240 -43 93 -102 125 -226 126
l-81 0 -1 83 c-1 122 -14 182 -57 260 -56 100 -151 179 -260 218 -81 29 -245
34 -330 10z m-357 -943 l-3 -163 -57 0 c-58 -1 -58 -1 -59 30 -1 37 -1 277 0
288 1 4 28 7 61 7 l60 0 -2 -162z m1123 135 c3 -94 1 -282 -4 -290 -3 -5 -29
-8 -59 -8 l-53 1 -1 162 -2 162 59 0 c57 0 59 -1 60 -27z"/>
<path d="M700 779 c-100 -16 -192 -88 -238 -185 -27 -59 -27 -60 -27 -274 0
-199 1 -217 20 -242 11 -15 33 -33 49 -39 42 -18 1481 -18 1524 0 59 25 68 62
67 287 -1 192 -3 202 -27 255 -36 78 -89 133 -166 171 l-65 32 -551 1 c-303 0
-567 -2 -586 -6z m1093 -213 c31 -7 64 -37 75 -67 5 -13 9 -78 8 -144 l-1
-120 -613 -1 c-401 -1 -615 2 -619 9 -9 15 -5 230 5 258 16 42 48 61 109 68
73 8 1004 5 1036 -3z"/>
</g>
</svg>
